<mxfile host="app.diagrams.net" modified="2023-10-25T03:02:10.753Z" agent="Mozilla/5.0 (Windows NT 10.0; Win64; x64) AppleWebKit/537.36 (KHTML, like Gecko) Chrome/116.0.5845.888 YaBrowser/23.9.2.888 Yowser/2.5 Safari/537.36" etag="WcEZg4RbujkFbO7pXHB5" version="22.0.6" type="device">
  <diagram name="Страница — 1" id="XL-7D5xOes8uSIyhTzTn">
    <mxGraphModel dx="832" dy="485" grid="1" gridSize="10" guides="1" tooltips="1" connect="1" arrows="1" fold="1" page="1" pageScale="1" pageWidth="827" pageHeight="1169" math="0" shadow="0">
      <root>
        <mxCell id="0" />
        <mxCell id="1" parent="0" />
        <mxCell id="NPR2V615tpF7QtM8LnKp-1" value="" style="ellipse;html=1;shape=endState;fillColor=#000000;strokeColor=#ff0000;" vertex="1" parent="1">
          <mxGeometry x="414" y="460" width="30" height="30" as="geometry" />
        </mxCell>
        <mxCell id="NPR2V615tpF7QtM8LnKp-2" value="" style="ellipse;whiteSpace=wrap;html=1;aspect=fixed;fillColor=#000000;" vertex="1" parent="1">
          <mxGeometry x="410" width="30" height="30" as="geometry" />
        </mxCell>
        <mxCell id="NPR2V615tpF7QtM8LnKp-3" style="rounded=0;orthogonalLoop=1;jettySize=auto;html=1;endArrow=open;endFill=0;" edge="1" parent="1" source="NPR2V615tpF7QtM8LnKp-4" target="NPR2V615tpF7QtM8LnKp-6">
          <mxGeometry relative="1" as="geometry" />
        </mxCell>
        <mxCell id="NPR2V615tpF7QtM8LnKp-4" value="Формирование формы результатов тренировки спортсмена" style="rounded=1;whiteSpace=wrap;html=1;" vertex="1" parent="1">
          <mxGeometry x="365" y="70" width="125" height="70" as="geometry" />
        </mxCell>
        <mxCell id="NPR2V615tpF7QtM8LnKp-5" style="rounded=0;orthogonalLoop=1;jettySize=auto;html=1;entryX=1;entryY=1;entryDx=0;entryDy=0;endArrow=open;endFill=0;" edge="1" parent="1" source="NPR2V615tpF7QtM8LnKp-6">
          <mxGeometry relative="1" as="geometry">
            <mxPoint x="230" y="140" as="targetPoint" />
          </mxGeometry>
        </mxCell>
        <mxCell id="NPR2V615tpF7QtM8LnKp-6" value="Занесение данных о результатах тренировки" style="rounded=1;whiteSpace=wrap;html=1;" vertex="1" parent="1">
          <mxGeometry x="365" y="190" width="120" height="60" as="geometry" />
        </mxCell>
        <mxCell id="NPR2V615tpF7QtM8LnKp-7" style="rounded=0;orthogonalLoop=1;jettySize=auto;html=1;endArrow=open;endFill=0;" edge="1" parent="1" source="NPR2V615tpF7QtM8LnKp-9" target="NPR2V615tpF7QtM8LnKp-14">
          <mxGeometry relative="1" as="geometry" />
        </mxCell>
        <mxCell id="NPR2V615tpF7QtM8LnKp-8" style="rounded=0;orthogonalLoop=1;jettySize=auto;html=1;entryX=0.5;entryY=0;entryDx=0;entryDy=0;" edge="1" parent="1" source="NPR2V615tpF7QtM8LnKp-9" target="NPR2V615tpF7QtM8LnKp-1">
          <mxGeometry relative="1" as="geometry" />
        </mxCell>
        <mxCell id="NPR2V615tpF7QtM8LnKp-9" value="Отправка данных на сервер" style="rounded=1;whiteSpace=wrap;html=1;" vertex="1" parent="1">
          <mxGeometry x="369" y="340" width="120" height="60" as="geometry" />
        </mxCell>
        <mxCell id="NPR2V615tpF7QtM8LnKp-10" style="rounded=0;orthogonalLoop=1;jettySize=auto;html=1;endArrow=open;endFill=0;" edge="1" parent="1" source="NPR2V615tpF7QtM8LnKp-11" target="NPR2V615tpF7QtM8LnKp-4">
          <mxGeometry relative="1" as="geometry" />
        </mxCell>
        <mxCell id="NPR2V615tpF7QtM8LnKp-11" value="Данные о спортсмене" style="rounded=0;whiteSpace=wrap;html=1;" vertex="1" parent="1">
          <mxGeometry x="600" y="70" width="120" height="60" as="geometry" />
        </mxCell>
        <mxCell id="NPR2V615tpF7QtM8LnKp-12" style="edgeStyle=orthogonalEdgeStyle;rounded=0;orthogonalLoop=1;jettySize=auto;html=1;" edge="1" parent="1" source="NPR2V615tpF7QtM8LnKp-13" target="NPR2V615tpF7QtM8LnKp-6">
          <mxGeometry relative="1" as="geometry" />
        </mxCell>
        <mxCell id="NPR2V615tpF7QtM8LnKp-13" value="Результат тренировки спортсмена" style="rounded=0;whiteSpace=wrap;html=1;" vertex="1" parent="1">
          <mxGeometry x="600" y="190" width="120" height="60" as="geometry" />
        </mxCell>
        <mxCell id="NPR2V615tpF7QtM8LnKp-14" value="Заполненная форма результатов тренировки спортсмена" style="rounded=0;whiteSpace=wrap;html=1;" vertex="1" parent="1">
          <mxGeometry x="600" y="360" width="140" height="80" as="geometry" />
        </mxCell>
        <mxCell id="NPR2V615tpF7QtM8LnKp-15" style="rounded=0;orthogonalLoop=1;jettySize=auto;html=1;entryX=0;entryY=0.5;entryDx=0;entryDy=0;endArrow=open;endFill=0;" edge="1" parent="1" target="NPR2V615tpF7QtM8LnKp-4">
          <mxGeometry relative="1" as="geometry">
            <mxPoint x="230" y="99" as="sourcePoint" />
          </mxGeometry>
        </mxCell>
        <mxCell id="NPR2V615tpF7QtM8LnKp-16" style="edgeStyle=orthogonalEdgeStyle;rounded=0;orthogonalLoop=1;jettySize=auto;html=1;entryX=0;entryY=0.5;entryDx=0;entryDy=0;exitX=0.25;exitY=1;exitDx=0;exitDy=0;" edge="1" parent="1" target="NPR2V615tpF7QtM8LnKp-9">
          <mxGeometry relative="1" as="geometry">
            <mxPoint x="110" y="140" as="sourcePoint" />
            <Array as="points">
              <mxPoint x="110" y="370" />
            </Array>
          </mxGeometry>
        </mxCell>
        <mxCell id="NPR2V615tpF7QtM8LnKp-17" style="rounded=0;orthogonalLoop=1;jettySize=auto;html=1;exitX=0.5;exitY=0;exitDx=0;exitDy=0;entryX=0.5;entryY=0;entryDx=0;entryDy=0;" edge="1" parent="1" source="NPR2V615tpF7QtM8LnKp-18" target="NPR2V615tpF7QtM8LnKp-4">
          <mxGeometry relative="1" as="geometry" />
        </mxCell>
        <mxCell id="NPR2V615tpF7QtM8LnKp-18" value="ActivityInitial" style="text;html=1;strokeColor=none;fillColor=none;align=center;verticalAlign=middle;whiteSpace=wrap;rounded=0;" vertex="1" parent="1">
          <mxGeometry x="395" y="30" width="60" height="30" as="geometry" />
        </mxCell>
        <mxCell id="NPR2V615tpF7QtM8LnKp-19" value="ActivityFinal" style="text;html=1;strokeColor=none;fillColor=none;align=center;verticalAlign=middle;whiteSpace=wrap;rounded=0;" vertex="1" parent="1">
          <mxGeometry x="399" y="490" width="60" height="30" as="geometry" />
        </mxCell>
        <mxCell id="NPR2V615tpF7QtM8LnKp-20" style="edgeStyle=orthogonalEdgeStyle;rounded=0;orthogonalLoop=1;jettySize=auto;html=1;endArrow=open;endFill=0;exitX=0.5;exitY=1;exitDx=0;exitDy=0;" edge="1" parent="1" source="NPR2V615tpF7QtM8LnKp-6">
          <mxGeometry relative="1" as="geometry">
            <mxPoint x="424.57" y="280" as="sourcePoint" />
            <mxPoint x="424.57" y="340" as="targetPoint" />
          </mxGeometry>
        </mxCell>
        <mxCell id="NPR2V615tpF7QtM8LnKp-21" value="&lt;u&gt;Форма результатов тренировки спортсмена&lt;/u&gt;" style="rounded=0;whiteSpace=wrap;html=1;fillColor=#28FCE7;strokeColor=#6c8ebf;" vertex="1" parent="1">
          <mxGeometry x="70" y="50" width="160" height="90" as="geometry" />
        </mxCell>
      </root>
    </mxGraphModel>
  </diagram>
</mxfile>
